<?xml version="1.0" encoding="UTF-8" standalone="no"?>
<svg width="338px" height="73px" viewBox="0 0 338 73" version="1.1" xmlns="http://www.w3.org/2000/svg" xmlns:xlink="http://www.w3.org/1999/xlink" xmlns:sketch="http://www.bohemiancoding.com/sketch/ns">
    <!-- Generator: Sketch 3.2.2 (9983) - http://www.bohemiancoding.com/sketch -->
    <title>worona</title>
    <desc>Created with Sketch.</desc>
    <defs></defs>
    <g id="logo" stroke="none" stroke-width="1" fill="none" fill-rule="evenodd" sketch:type="MSPage">
        <g id="400x400-tw" sketch:type="MSArtboardGroup" transform="translate(-31.000000, -164.000000)">
            <g id="worona" sketch:type="MSLayerGroup" transform="translate(32.000000, 164.000000)">
                <path d="M1.71492473,23.04 L-0.279397849,15.4368 L12.2935054,15.4368 L13.5074409,19.9296 L20.7910538,47.0592 L31.4563441,19.3248 L32.9304086,15.4368 L41.2545376,15.4368 L42.7286022,19.3248 L53.3938925,47.0592 L60.6775054,19.9296 L61.8914409,15.4368 L74.4643441,15.4368 L72.4700215,23.04 L60.3306667,68.2272 L59.1167312,72.72 L50.2723441,72.72 L48.7982796,68.832 L37.0924731,38.4192 L25.3866667,68.832 L23.9126022,72.72 L15.0682151,72.72 L13.8542796,68.2272 L1.71492473,23.04 Z M156.441721,20.8038727 C161.591902,17.3395881 167.951091,15.4368 174.650753,15.4368 L180.72043,15.4368 L180.72043,27.5328 L174.650753,27.5328 C162.763275,27.5328 156.52721,32.3235492 156.441721,43.5629742 L156.441721,44.0352 L156.441721,50.0832 L156.441721,66.672 L156.441721,72.72 L144.302366,72.72 L144.302366,66.672 L144.302366,50.0832 L144.302366,44.0352 C144.302366,43.9292408 144.30184,43.8235137 144.302366,43.7180212 L144.302366,21.4848 L144.302366,15.4368 L156.441721,15.4368 L156.441721,20.8038727 Z M180.286882,44.0352 C180.286882,29.2608 192.686366,15.5232 206.299785,15.4368 C220.086624,15.4368 232.399398,29.4336 232.312688,44.0352 C232.312688,58.8096 220.173334,72.8064 206.299785,72.72 C192.512946,72.72 180.286882,58.8096 180.286882,44.0352 Z M192.426237,44.0352 C192.426237,54.3168 198.062366,60.7104 206.299785,60.624 C214.623914,60.624 220.260043,54.3168 220.173334,44.0352 C220.173334,33.84 214.623914,27.6192 206.299785,27.5328 C198.062366,27.5328 192.426237,33.84 192.426237,44.0352 Z M247.486882,18.9630738 C250.917656,16.7701465 254.800992,15.4651764 258.75914,15.4368 C270.985204,15.4368 282.257463,27.6192 282.170753,40.2336 L282.170753,66.672 L282.257463,72.8064 L270.204817,72.8064 L270.118108,66.7584 L270.031398,40.2336 C270.031398,32.1984 265.695914,27.6192 258.75914,27.5328 C251.909075,27.5328 247.486882,32.1984 247.486882,40.2336 L247.486882,46.2816 L247.486882,66.672 L247.486882,72.72 L235.347527,72.72 L235.347527,66.672 L235.347527,46.2816 L235.347527,40.2336 L235.347527,21.4848 L235.347527,15.4368 L247.486882,15.4368 L247.486882,18.9630738 Z M284.145807,44.1216 C284.145807,29.2608 296.54529,15.5232 310.15871,15.4368 C315.149065,15.4368 319.946292,17.2706432 324.032258,20.3073258 L324.032258,15.4368 L336.171613,15.4368 L336.171613,21.4848 L336.171613,43.8129299 L336.171613,44.1216 L336.171613,66.672 L336.171613,72.72 L324.032258,72.72 L324.032258,67.9257347 C319.961973,70.9423005 315.17364,72.7512306 310.15871,72.7199987 C296.371871,72.7199987 284.145807,58.8095987 284.145807,44.1215987 L284.145807,44.1216 Z M296.285161,44.1215987 C296.285161,54.3167987 301.92129,60.7103987 310.15871,60.6239987 C318.356376,60.6240013 323.947097,54.5069865 324.032258,44.583565 L324.032258,44.1215987 C324.032258,33.8399987 318.482839,27.6191987 310.15871,27.5327987 C301.92129,27.5327987 296.285161,33.8399987 296.285161,44.1215987 Z" fill="#FFFFFF" sketch:type="MSShapeGroup"></path>
                <path d="M106.848175,0.602390588 C124.868026,0.602390588 140.961226,18.2707567 140.847894,36.7025706 C140.847894,55.3525126 124.981358,73.0208786 106.848175,72.9118147 C88.8283239,72.9118147 72.8484559,55.3525126 72.8484559,36.7025706 C72.8484559,18.0526287 89.0549887,0.711454576 106.848175,0.602390588 Z M88.7149915,36.7025706 C88.7149915,49.6811852 96.0815973,57.7519203 106.848175,57.6428563 C117.728085,57.6428563 125.094691,49.6811852 124.981358,36.7025706 C124.981358,23.83302 117.728085,15.9804129 106.848175,15.8713489 C96.0815973,15.8713489 88.7149915,23.83302 88.7149915,36.7025706 Z" id="Path" fill="#3A95FF" sketch:type="MSShapeGroup"></path>
            </g>
        </g>
    </g>
</svg>